<?xml version="1.0" encoding="UTF-8" standalone="no"?>
<!DOCTYPE svg PUBLIC "-//W3C//DTD SVG 1.1//EN"
 "http://www.w3.org/Graphics/SVG/1.1/DTD/svg11.dtd">
<!-- Generated by graphviz version 2.40.1 (20161225.0304)
 -->
<!-- Title: demo Pages: 1 -->
<svg width="2268pt" height="289pt"
 viewBox="0.00 0.00 2267.99 289.02" xmlns="http://www.w3.org/2000/svg" xmlns:xlink="http://www.w3.org/1999/xlink">
<g id="graph0" class="graph" transform="scale(1 1) rotate(0) translate(4 285.0248)">
<title>demo</title>
<polygon fill="#ffffff" stroke="transparent" points="-4,4 -4,-285.0248 2263.9894,-285.0248 2263.9894,4 -4,4"/>
<text text-anchor="middle" x="1129.9947" y="-7.8" font-family="Times,serif" font-size="14.00" fill="#000000">具体步骤</text>
<!-- 退出程序 -->
<g id="node1" class="node">
<title>退出程序</title>
<ellipse fill="none" stroke="#000000" cx="2212.5436" cy="-177.0248" rx="47.3916" ry="18"/>
<text text-anchor="middle" x="2212.5436" y="-173.3248" font-family="Times,serif" font-size="14.00" fill="#000000">退出程序</text>
</g>
<!-- 运行程序 -->
<g id="node2" class="node">
<title>运行程序</title>
<ellipse fill="none" stroke="#000000" cx="47.4458" cy="-253.0248" rx="47.3916" ry="18"/>
<text text-anchor="middle" x="47.4458" y="-249.3248" font-family="Times,serif" font-size="14.00" fill="#000000">运行程序</text>
</g>
<!-- 输入美股英文代码(quit 退出) -->
<g id="node3" class="node">
<title>输入美股英文代码(quit 退出)</title>
<polygon fill="none" stroke="#000000" points="322.8916,-271.0248 131.8916,-271.0248 131.8916,-235.0248 322.8916,-235.0248 322.8916,-271.0248"/>
<text text-anchor="middle" x="227.3916" y="-249.3248" font-family="Times,serif" font-size="14.00" fill="#000000">输入美股英文代码(quit 退出)</text>
</g>
<!-- 运行程序&#45;&gt;输入美股英文代码(quit 退出) -->
<g id="edge1" class="edge">
<title>运行程序&#45;&gt;输入美股英文代码(quit 退出)</title>
<path fill="none" stroke="#000000" d="M95.1955,-253.0248C103.5301,-253.0248 112.4898,-253.0248 121.6754,-253.0248"/>
<polygon fill="#000000" stroke="#000000" points="121.7127,-256.5249 131.7126,-253.0248 121.7126,-249.5249 121.7127,-256.5249"/>
</g>
<!-- 输入美股英文代码(quit 退出)&#45;&gt;退出程序 -->
<g id="edge14" class="edge">
<title>输入美股英文代码(quit 退出)&#45;&gt;退出程序</title>
<path fill="none" stroke="#000000" d="M322.9261,-261.3132C359.9002,-263.869 402.5884,-266.0248 441.3916,-266.0248 441.3916,-266.0248 441.3916,-266.0248 2077.5978,-266.0248 2124.1412,-266.0248 2167.0145,-228.6733 2191.4396,-202.3649"/>
<polygon fill="#000000" stroke="#000000" points="2194.3295,-204.3855 2198.4111,-194.6084 2189.1233,-199.7062 2194.3295,-204.3855"/>
<text text-anchor="middle" x="1041.8916" y="-269.8248" font-family="Times,serif" font-size="14.00" fill="#000000">quit</text>
</g>
<!-- 输入起始日期(quit 退出) -->
<g id="node4" class="node">
<title>输入起始日期(quit 退出)</title>
<polygon fill="none" stroke="#000000" points="522.8916,-238.0248 359.8916,-238.0248 359.8916,-202.0248 522.8916,-202.0248 522.8916,-238.0248"/>
<text text-anchor="middle" x="441.3916" y="-216.3248" font-family="Times,serif" font-size="14.00" fill="#000000">输入起始日期(quit 退出)</text>
</g>
<!-- 输入美股英文代码(quit 退出)&#45;&gt;输入起始日期(quit 退出) -->
<g id="edge2" class="edge">
<title>输入美股英文代码(quit 退出)&#45;&gt;输入起始日期(quit 退出)</title>
<path fill="none" stroke="#000000" d="M323.125,-238.2622C332.0192,-236.8907 341.0185,-235.5029 349.8732,-234.1375"/>
<polygon fill="#000000" stroke="#000000" points="350.446,-237.5906 359.7957,-232.6074 349.3791,-230.6724 350.446,-237.5906"/>
</g>
<!-- 输入起始日期(quit 退出)&#45;&gt;退出程序 -->
<g id="edge15" class="edge">
<title>输入起始日期(quit 退出)&#45;&gt;退出程序</title>
<path fill="none" stroke="#000000" d="M523.1257,-221.8046C559.3554,-222.4506 602.4983,-223.0248 641.3916,-223.0248 641.3916,-223.0248 641.3916,-223.0248 2077.5978,-223.0248 2112.5385,-223.0248 2149.9776,-209.0378 2176.5354,-196.4892"/>
<polygon fill="#000000" stroke="#000000" points="2178.3553,-199.4955 2185.8027,-191.9597 2175.2815,-193.2064 2178.3553,-199.4955"/>
<text text-anchor="middle" x="1189.4629" y="-226.8248" font-family="Times,serif" font-size="14.00" fill="#000000">quit</text>
</g>
<!-- 输入截止日期(quit 退出) -->
<g id="node5" class="node">
<title>输入截止日期(quit 退出)</title>
<polygon fill="none" stroke="#000000" points="722.8916,-195.0248 559.8916,-195.0248 559.8916,-159.0248 722.8916,-159.0248 722.8916,-195.0248"/>
<text text-anchor="middle" x="641.3916" y="-173.3248" font-family="Times,serif" font-size="14.00" fill="#000000">输入截止日期(quit 退出)</text>
</g>
<!-- 输入起始日期(quit 退出)&#45;&gt;输入截止日期(quit 退出) -->
<g id="edge3" class="edge">
<title>输入起始日期(quit 退出)&#45;&gt;输入截止日期(quit 退出)</title>
<path fill="none" stroke="#000000" d="M523.0277,-202.4731C531.8172,-200.5833 540.8027,-198.6515 549.6998,-196.7386"/>
<polygon fill="#000000" stroke="#000000" points="550.6515,-200.114 559.6923,-194.5902 549.18,-193.2704 550.6515,-200.114"/>
</g>
<!-- 输入截止日期(quit 退出)&#45;&gt;退出程序 -->
<g id="edge16" class="edge">
<title>输入截止日期(quit 退出)&#45;&gt;退出程序</title>
<path fill="none" stroke="#000000" d="M723.0526,-177.0248C750.7755,-177.0248 781.9315,-177.0248 810.3916,-177.0248 810.3916,-177.0248 810.3916,-177.0248 2077.5978,-177.0248 2102.9038,-177.0248 2130.8792,-177.0248 2154.7661,-177.0248"/>
<polygon fill="#000000" stroke="#000000" points="2155.0802,-180.5249 2165.0801,-177.0248 2155.0801,-173.5249 2155.0802,-180.5249"/>
<text text-anchor="middle" x="1337.0342" y="-180.8248" font-family="Times,serif" font-size="14.00" fill="#000000">quit</text>
</g>
<!-- 选择表格模式 -->
<g id="node6" class="node">
<title>选择表格模式</title>
<polygon fill="none" stroke="#000000" points="860.8916,-123.0248 759.8916,-123.0248 759.8916,-87.0248 860.8916,-87.0248 860.8916,-123.0248"/>
<text text-anchor="middle" x="810.3916" y="-101.3248" font-family="Times,serif" font-size="14.00" fill="#000000">选择表格模式</text>
</g>
<!-- 输入截止日期(quit 退出)&#45;&gt;选择表格模式 -->
<g id="edge4" class="edge">
<title>输入截止日期(quit 退出)&#45;&gt;选择表格模式</title>
<path fill="none" stroke="#000000" d="M684.0374,-158.8562C706.7406,-149.1838 734.8366,-137.2139 758.7657,-127.0193"/>
<polygon fill="#000000" stroke="#000000" points="760.2244,-130.2023 768.0524,-123.0628 757.4807,-123.7624 760.2244,-130.2023"/>
</g>
<!-- 一支股票一张图 -->
<g id="node7" class="node">
<title>一支股票一张图</title>
<polygon fill="none" stroke="#000000" points="1012.8916,-149.0248 897.8916,-149.0248 897.8916,-113.0248 1012.8916,-113.0248 1012.8916,-149.0248"/>
<text text-anchor="middle" x="955.3916" y="-127.3248" font-family="Times,serif" font-size="14.00" fill="#000000">一支股票一张图</text>
</g>
<!-- 选择表格模式&#45;&gt;一支股票一张图 -->
<g id="edge5" class="edge">
<title>选择表格模式&#45;&gt;一支股票一张图</title>
<path fill="none" stroke="#000000" d="M861.1055,-114.1184C869.7094,-115.6611 878.7644,-117.2848 887.7208,-118.8908"/>
<polygon fill="#000000" stroke="#000000" points="887.3008,-122.3712 897.7615,-120.6912 888.5363,-115.4811 887.3008,-122.3712"/>
</g>
<!-- 所有股票一张图 -->
<g id="node8" class="node">
<title>所有股票一张图</title>
<polygon fill="none" stroke="#000000" points="1012.8916,-95.0248 897.8916,-95.0248 897.8916,-59.0248 1012.8916,-59.0248 1012.8916,-95.0248"/>
<text text-anchor="middle" x="955.3916" y="-73.3248" font-family="Times,serif" font-size="14.00" fill="#000000">所有股票一张图</text>
</g>
<!-- 选择表格模式&#45;&gt;所有股票一张图 -->
<g id="edge6" class="edge">
<title>选择表格模式&#45;&gt;所有股票一张图</title>
<path fill="none" stroke="#000000" d="M861.1055,-95.2318C869.7094,-93.5704 878.7644,-91.8218 887.7208,-90.0923"/>
<polygon fill="#000000" stroke="#000000" points="888.6066,-93.486 897.7615,-88.1534 887.2793,-86.613 888.6066,-93.486"/>
</g>
<!-- 是否重复上一步骤 -->
<g id="node11" class="node">
<title>是否重复上一步骤</title>
<polygon fill="none" stroke="#000000" points="1189.4629,-99.0248 1070.8203,-81.0248 1189.4629,-63.0248 1308.1055,-81.0248 1189.4629,-99.0248"/>
<text text-anchor="middle" x="1189.4629" y="-77.3248" font-family="Times,serif" font-size="14.00" fill="#000000">是否重复上一步骤</text>
</g>
<!-- 一支股票一张图&#45;&gt;是否重复上一步骤 -->
<g id="edge7" class="edge">
<title>一支股票一张图&#45;&gt;是否重复上一步骤</title>
<path fill="none" stroke="#000000" d="M1012.9516,-118.7294C1048.5862,-111.1175 1094.2396,-101.3655 1130.189,-93.6864"/>
<polygon fill="#000000" stroke="#000000" points="1131.0066,-97.0907 1140.0548,-91.5789 1129.5443,-90.2452 1131.0066,-97.0907"/>
</g>
<!-- 所有股票一张图&#45;&gt;是否重复上一步骤 -->
<g id="edge8" class="edge">
<title>所有股票一张图&#45;&gt;是否重复上一步骤</title>
<path fill="none" stroke="#000000" d="M1012.9516,-78.0085C1031.0989,-78.3186 1051.8444,-78.6731 1072.5835,-79.0275"/>
<polygon fill="#000000" stroke="#000000" points="1072.6941,-82.5298 1082.7525,-79.2013 1072.8138,-75.5308 1072.6941,-82.5298"/>
</g>
<!-- 输入文件名称 -->
<g id="node9" class="node">
<title>输入文件名称</title>
<polygon fill="none" stroke="#000000" points="1976.0978,-111.0248 1875.0978,-111.0248 1875.0978,-75.0248 1976.0978,-75.0248 1976.0978,-111.0248"/>
<text text-anchor="middle" x="1925.5978" y="-89.3248" font-family="Times,serif" font-size="14.00" fill="#000000">输入文件名称</text>
</g>
<!-- 输入文件格式 -->
<g id="node10" class="node">
<title>输入文件格式</title>
<polygon fill="none" stroke="#000000" points="2128.0978,-111.0248 2027.0978,-111.0248 2027.0978,-75.0248 2128.0978,-75.0248 2128.0978,-111.0248"/>
<text text-anchor="middle" x="2077.5978" y="-89.3248" font-family="Times,serif" font-size="14.00" fill="#000000">输入文件格式</text>
</g>
<!-- 输入文件名称&#45;&gt;输入文件格式 -->
<g id="edge12" class="edge">
<title>输入文件名称&#45;&gt;输入文件格式</title>
<path fill="none" stroke="#000000" d="M1976.2116,-93.0248C1989.2184,-93.0248 2003.346,-93.0248 2016.8095,-93.0248"/>
<polygon fill="#000000" stroke="#000000" points="2016.9461,-96.5249 2026.9461,-93.0248 2016.946,-89.5249 2016.9461,-96.5249"/>
</g>
<!-- 输入文件格式&#45;&gt;退出程序 -->
<g id="edge13" class="edge">
<title>输入文件格式&#45;&gt;退出程序</title>
<path fill="none" stroke="#000000" d="M2121.0722,-111.089C2129.8898,-115.2905 2138.9514,-120.014 2147.0978,-125.0248 2160.6252,-133.3456 2174.547,-144.0552 2186.0539,-153.5906"/>
<polygon fill="#000000" stroke="#000000" points="2184.0683,-156.4949 2193.9658,-160.2753 2188.5861,-151.1479 2184.0683,-156.4949"/>
</g>
<!-- 是否重复上一步骤&#45;&gt;选择表格模式 -->
<g id="edge9" class="edge">
<title>是否重复上一步骤&#45;&gt;选择表格模式</title>
<path fill="none" stroke="#000000" d="M1160.4803,-67.368C1107.0992,-44.1784 990.254,-2.6259 897.8916,-35.0248 872.8081,-43.8237 849.5733,-63.1721 833.3598,-79.3017"/>
<polygon fill="#000000" stroke="#000000" points="830.4384,-77.2865 825.9872,-86.901 835.4625,-82.1608 830.4384,-77.2865"/>
<text text-anchor="middle" x="955.3916" y="-38.8248" font-family="Times,serif" font-size="14.00" fill="#000000">yes</text>
</g>
<!-- 是否下载数据，输出为excel或csv文件 -->
<g id="node12" class="node">
<title>是否下载数据，输出为excel或csv文件</title>
<polygon fill="none" stroke="#000000" points="1593.066,-111.0248 1366.0023,-93.0248 1593.066,-75.0248 1820.1297,-93.0248 1593.066,-111.0248"/>
<text text-anchor="middle" x="1593.066" y="-89.3248" font-family="Times,serif" font-size="14.00" fill="#000000">是否下载数据，输出为excel或csv文件</text>
</g>
<!-- 是否重复上一步骤&#45;&gt;是否下载数据，输出为excel或csv文件 -->
<g id="edge10" class="edge">
<title>是否重复上一步骤&#45;&gt;是否下载数据，输出为excel或csv文件</title>
<path fill="none" stroke="#000000" d="M1288.7122,-83.9757C1327.5807,-85.1314 1373.3621,-86.4926 1417.4478,-87.8033"/>
<polygon fill="#000000" stroke="#000000" points="1417.6154,-91.3098 1427.715,-88.1086 1417.8235,-84.3129 1417.6154,-91.3098"/>
<text text-anchor="middle" x="1337.0342" y="-89.8248" font-family="Times,serif" font-size="14.00" fill="#000000">no</text>
</g>
<!-- 是否下载数据，输出为excel或csv文件&#45;&gt;退出程序 -->
<g id="edge17" class="edge">
<title>是否下载数据，输出为excel或csv文件&#45;&gt;退出程序</title>
<path fill="none" stroke="#000000" d="M1693.278,-103.0927C1804.5393,-114.8729 1989.2674,-136.2228 2147.0978,-163.0248 2151.8589,-163.8334 2156.7991,-164.7483 2161.7347,-165.7139"/>
<polygon fill="#000000" stroke="#000000" points="2161.3052,-169.1979 2171.8005,-167.7491 2162.6925,-162.3367 2161.3052,-169.1979"/>
<text text-anchor="middle" x="2001.5978" y="-145.8248" font-family="Times,serif" font-size="14.00" fill="#000000">no</text>
</g>
<!-- 是否下载数据，输出为excel或csv文件&#45;&gt;输入文件名称 -->
<g id="edge11" class="edge">
<title>是否下载数据，输出为excel或csv文件&#45;&gt;输入文件名称</title>
<path fill="none" stroke="#000000" d="M1820.3827,-93.0248C1836.3944,-93.0248 1851.529,-93.0248 1865.0654,-93.0248"/>
<polygon fill="#000000" stroke="#000000" points="1865.0934,-96.5249 1875.0934,-93.0248 1865.0934,-89.5249 1865.0934,-96.5249"/>
<text text-anchor="middle" x="1847.5978" y="-96.8248" font-family="Times,serif" font-size="14.00" fill="#000000">yes</text>
</g>
</g>
</svg>
